<mxfile host="app.diagrams.net" modified="2022-11-25T08:58:14.549Z" agent="5.0 (Macintosh; Intel Mac OS X 10_15_7) AppleWebKit/537.36 (KHTML, like Gecko) Chrome/107.0.0.0 Safari/537.36" etag="Nr_yuJpmdWcYYPem4609" version="20.5.1" type="github">
  <diagram id="1039U4D3Cli7lgayuh73" name="第 1 页">
    <mxGraphModel dx="895" dy="575" grid="1" gridSize="10" guides="1" tooltips="1" connect="1" arrows="1" fold="1" page="1" pageScale="1" pageWidth="827" pageHeight="1169" math="0" shadow="0">
      <root>
        <mxCell id="0" />
        <mxCell id="1" parent="0" />
        <mxCell id="XLMq2Yr34e-YFDyutsR1-1" value="&lt;font style=&quot;font-size: 16px;&quot;&gt;Operation System&lt;/font&gt;" style="rounded=1;whiteSpace=wrap;html=1;fillColor=#ffe6cc;strokeColor=#d79b00;" vertex="1" parent="1">
          <mxGeometry x="120" y="400" width="600" height="60" as="geometry" />
        </mxCell>
        <mxCell id="XLMq2Yr34e-YFDyutsR1-2" value="Hypervisor" style="whiteSpace=wrap;html=1;rounded=1;fontSize=16;fillColor=#dae8fc;strokeColor=#6c8ebf;" vertex="1" parent="1">
          <mxGeometry x="120" y="320" width="280" height="60" as="geometry" />
        </mxCell>
        <mxCell id="XLMq2Yr34e-YFDyutsR1-3" value="Docker Engine" style="whiteSpace=wrap;html=1;rounded=1;fontSize=16;fillColor=#d5e8d4;strokeColor=#82b366;" vertex="1" parent="1">
          <mxGeometry x="440" y="320" width="280" height="60" as="geometry" />
        </mxCell>
        <mxCell id="XLMq2Yr34e-YFDyutsR1-4" value="&lt;font style=&quot;font-size: 16px;&quot;&gt;Infrastructure&lt;/font&gt;" style="rounded=1;whiteSpace=wrap;html=1;fillColor=#f5f5f5;fontColor=#333333;strokeColor=#666666;" vertex="1" parent="1">
          <mxGeometry x="120" y="480" width="600" height="60" as="geometry" />
        </mxCell>
        <mxCell id="XLMq2Yr34e-YFDyutsR1-5" value="Guest OS" style="whiteSpace=wrap;html=1;rounded=1;fontSize=16;fillColor=#f8cecc;strokeColor=#b85450;" vertex="1" parent="1">
          <mxGeometry x="120" y="240" width="130" height="60" as="geometry" />
        </mxCell>
        <mxCell id="XLMq2Yr34e-YFDyutsR1-6" value="Guest OS" style="whiteSpace=wrap;html=1;rounded=1;fontSize=16;fillColor=#f8cecc;strokeColor=#b85450;" vertex="1" parent="1">
          <mxGeometry x="270" y="240" width="130" height="60" as="geometry" />
        </mxCell>
        <mxCell id="XLMq2Yr34e-YFDyutsR1-7" value="Bins/Libs" style="whiteSpace=wrap;html=1;rounded=1;fontSize=16;fillColor=#fff2cc;strokeColor=#d6b656;" vertex="1" parent="1">
          <mxGeometry x="120" y="160" width="130" height="60" as="geometry" />
        </mxCell>
        <mxCell id="XLMq2Yr34e-YFDyutsR1-8" value="Bins/Libs" style="whiteSpace=wrap;html=1;rounded=1;fontSize=16;fillColor=#fff2cc;strokeColor=#d6b656;" vertex="1" parent="1">
          <mxGeometry x="270" y="160" width="130" height="60" as="geometry" />
        </mxCell>
        <mxCell id="XLMq2Yr34e-YFDyutsR1-9" value="APP3&lt;br&gt;Bins/Libs" style="whiteSpace=wrap;html=1;rounded=1;fontSize=16;fillColor=#fff2cc;strokeColor=#d6b656;" vertex="1" parent="1">
          <mxGeometry x="440" y="190" width="130" height="80" as="geometry" />
        </mxCell>
        <mxCell id="XLMq2Yr34e-YFDyutsR1-10" value="APP4&lt;br&gt;Bins/Libs" style="whiteSpace=wrap;html=1;rounded=1;fontSize=16;fillColor=#fff2cc;strokeColor=#d6b656;" vertex="1" parent="1">
          <mxGeometry x="590" y="190" width="130" height="80" as="geometry" />
        </mxCell>
        <mxCell id="XLMq2Yr34e-YFDyutsR1-11" value="APP1" style="whiteSpace=wrap;html=1;rounded=1;fontSize=16;fillColor=#e1d5e7;strokeColor=#9673a6;" vertex="1" parent="1">
          <mxGeometry x="120" y="80" width="130" height="60" as="geometry" />
        </mxCell>
        <mxCell id="XLMq2Yr34e-YFDyutsR1-12" value="APP2" style="whiteSpace=wrap;html=1;rounded=1;fontSize=16;fillColor=#e1d5e7;strokeColor=#9673a6;" vertex="1" parent="1">
          <mxGeometry x="270" y="80" width="130" height="60" as="geometry" />
        </mxCell>
        <mxCell id="XLMq2Yr34e-YFDyutsR1-13" value="APP3" style="whiteSpace=wrap;html=1;rounded=1;fontSize=16;fillColor=#e1d5e7;strokeColor=#9673a6;" vertex="1" parent="1">
          <mxGeometry x="440" y="80" width="130" height="60" as="geometry" />
        </mxCell>
        <mxCell id="XLMq2Yr34e-YFDyutsR1-14" value="APP4" style="whiteSpace=wrap;html=1;rounded=1;fontSize=16;fillColor=#e1d5e7;strokeColor=#9673a6;" vertex="1" parent="1">
          <mxGeometry x="590" y="80" width="130" height="60" as="geometry" />
        </mxCell>
      </root>
    </mxGraphModel>
  </diagram>
</mxfile>
